<svg width="597" height="86" viewBox="0 0 597 86" fill="none" xmlns="http://www.w3.org/2000/svg">
<path fill-rule="evenodd" clip-rule="evenodd" d="M362.767 24.0391H0.23304C0.104402 24.0391 0 24.1419 0 24.2692V36.8089C0 36.9359 0.104402 37.0391 0.23304 37.0391H362.767C362.896 37.0391 363 36.9359 363 36.8089V24.2692C363 24.1419 362.896 24.0391 362.767 24.0391Z" fill="#383838"/>
<path fill-rule="evenodd" clip-rule="evenodd" d="M486.299 14.8789H1.12388C0.995021 14.8789 0.890625 14.9792 0.890625 15.1029V23.8376C0.890625 23.9612 0.995021 24.0613 1.12388 24.0613H486.299C486.638 24.0613 486.532 23.9612 486.532 23.8376V15.1029C486.532 14.9792 486.638 14.8789 486.299 14.8789Z" fill="#F0F0F0"/>
<path fill-rule="evenodd" clip-rule="evenodd" d="M322.767 37.0391H0.232836C0.104311 37.0391 0 37.1604 0 37.3098V47.7683C0 47.9178 0.104311 48.0391 0.232836 48.0391H322.767C322.896 48.0391 323 47.9178 323 47.7683V37.3098C323 37.1604 322.896 37.0391 322.767 37.0391Z" fill="#1BB3C9"/>
<path fill-rule="evenodd" clip-rule="evenodd" d="M342.426 37.0391H289.154C288.997 37.0391 288.953 37.1275 289.055 37.2369L324.106 74.841C324.208 74.9504 324.418 75.0391 324.574 75.0391H377.846C378.003 75.0391 378.047 74.9504 377.945 74.841L342.894 37.2369C342.792 37.1275 342.582 37.0391 342.426 37.0391Z" fill="#1BB3C9"/>
<path fill-rule="evenodd" clip-rule="evenodd" d="M330.214 24.011L593 24.0246C593.092 24.0246 595.772 23.8089 596 24.0279V85.0374C596.092 85.0374 595.5 85.0306 596 85.0374H393.717C393.625 85.0374 393.366 84.8598 393.138 84.641L330.46 24.4074C330.232 24.1884 330.122 24.011 330.214 24.011Z" fill="#383838"/>
<path fill-rule="evenodd" clip-rule="evenodd" d="M486.683 24.0117H404.303C404.08 24.0117 404.008 24.1163 404.143 24.2455L435.52 54.402C435.655 54.5312 435.944 54.6358 436.167 54.6358H518.547C518.77 54.6358 518.842 54.5312 518.708 54.402L487.33 24.2455C487.196 24.1163 486.906 24.0117 486.683 24.0117Z" fill="#18A5B9"/>
<path fill-rule="evenodd" clip-rule="evenodd" d="M595.904 0.0329949L493.013 0.0381188C492.945 0.0381188 492.835 0.0909893 492.767 0.156384L436.22 54.5168C436.152 54.582 436.152 54.6348 436.22 54.6348H595.904C595.971 54.6348 596.082 54.582 596.149 54.5168L595.904 0.0304815C595.971 -0.0349135 539.111 0.0236127 595.904 0.0329949Z" fill="#18B2C8"/>
</svg>
