<svg width="601" height="93" viewBox="0 0 601 93" fill="none" xmlns="http://www.w3.org/2000/svg">
<path fill-rule="evenodd" clip-rule="evenodd" d="M0.0204677 89.3477H363.732C364.029 89.3477 364.121 89.452 364.121 89.581V90.514C364.121 90.6428 364.029 90.7473 363.732 90.7473H0.0204677C0.0916954 90.7473 0 90.6428 0 90.514V89.581C0 89.452 0.0916954 89.3477 0.0204677 89.3477Z" fill="#3B3B3B"/>
<path fill-rule="evenodd" clip-rule="evenodd" d="M385.199 23L600 23.5C516.092 23.7655 600.144 23.5 600 23.5V92C600.144 92 584.7 93.4455 600 92L316.115 91C315.971 91 315.961 90.895 316.092 90.5545L384.7 23.2345C384.832 23.105 385.055 23 385.199 23Z" fill="#383838"/>
<path fill-rule="evenodd" clip-rule="evenodd" d="M549.575 23H497.145C497.003 23 496.958 22.9213 497.043 22.8245L517.013 0.175475C517.098 0.0784778 517.283 0 517.425 0H569.855C569.997 0 570.042 0.0784778 569.957 0.175475L549.987 22.8245C549.901 22.9213 549.717 23 549.575 23Z" fill="#18A5B9"/>
<path d="M555.582 41H600V31.5V0.0886539L517.035 0C516.988 0 516.988 0.0398132 517.035 0.0886539L555.415 40.9113C555.461 40.9604 555.536 41 555.582 41Z" fill="#18B2C8"/>
</svg>
