<svg width="602" height="86" viewBox="0 0 602 86" fill="none" xmlns="http://www.w3.org/2000/svg">
<path fill-rule="evenodd" clip-rule="evenodd" d="M365.81 24.2422H0.234995C0.105278 24.2422 0 24.3459 0 24.4743V37.1191C0 37.2472 0.105278 37.3512 0.234995 37.3512H365.81C365.939 37.3512 366.045 37.2472 366.045 37.1191V24.4743C366.045 24.3459 365.939 24.2422 365.81 24.2422Z" fill="#383838"/>
<path fill-rule="evenodd" clip-rule="evenodd" d="M346.292 37.3398C346.134 37.3398 292.731 37.3398 292.573 37.3398C292.415 37.3398 292.371 37.4282 292.473 37.5375C292.576 37.6468 327.716 74.9912 327.819 75.1005C327.922 75.2098 328.133 75.2984 328.29 75.2984C328.448 75.2984 373.788 75.3062 382.01 75.2984C390.232 75.2906 387.309 75.2098 387.206 75.1005C387.104 74.9912 346.866 37.6468 346.764 37.5375C346.661 37.4282 346.45 37.3398 346.292 37.3398Z" fill="#1BB3C9"/>
<path fill-rule="evenodd" clip-rule="evenodd" d="M490.378 15.0039H1.13316C1.00322 15.0039 0.897949 15.1051 0.897949 15.2297V24.0377C0.897949 24.1623 1.00322 24.2633 1.13316 24.2633H490.378C490.719 24.2633 490.613 24.1623 490.613 24.0377V15.2297C490.613 15.1051 490.719 15.0039 490.378 15.0039Z" fill="#F0F0F0"/>
<path fill-rule="evenodd" clip-rule="evenodd" d="M325.474 37.3516H0.234789C0.105186 37.3516 0 37.4739 0 37.6246V48.1708C0 48.3215 0.105186 48.4438 0.234789 48.4438H325.474C325.604 48.4438 325.709 48.3215 325.709 48.1708V37.6246C325.709 37.4739 325.604 37.3516 325.474 37.3516Z" fill="#1BB3C9"/>
<path fill-rule="evenodd" clip-rule="evenodd" d="M332.984 24.2148L597.974 24.2285C598.067 24.2285 600.769 24.011 600.999 24.2318V85.7531C601.092 85.7531 600.495 85.7461 600.999 85.7531H397.019C396.927 85.7531 396.665 85.574 396.435 85.3534L333.232 24.6146C333.002 24.3937 332.891 24.2148 332.984 24.2148Z" fill="#383838"/>
<path fill-rule="evenodd" clip-rule="evenodd" d="M490.764 24.2148H407.694C407.469 24.2148 407.397 24.3203 407.532 24.4506L439.173 54.86C439.308 54.9903 439.6 55.0958 439.825 55.0958H522.896C523.121 55.0958 523.193 54.9903 523.058 54.86L491.417 24.4506C491.281 24.3203 490.989 24.2148 490.764 24.2148Z" fill="#18A5B9"/>
<path fill-rule="evenodd" clip-rule="evenodd" d="M600.902 0.0332716L497.148 0.0384385C497.079 0.0384385 496.968 0.0917525 496.9 0.157696L439.879 54.974C439.81 55.0397 439.81 55.093 439.879 55.093H600.902C600.97 55.093 601.081 55.0397 601.149 54.974L600.902 0.0307371C600.97 -0.0352063 543.632 0.0238107 600.902 0.0332716Z" fill="#18B2C8"/>
</svg>
