<svg width="601" height="93" viewBox="0 0 601 93" fill="none" xmlns="http://www.w3.org/2000/svg">
<path fill-rule="evenodd" clip-rule="evenodd" d="M0.0337268 92H599.359C599.849 92 600 92.0745 600 92.1667V92.8333C600 92.9253 599.849 93 599.359 93H0.0337268C0.151096 93 0 92.9253 0 92.8333V92.1667C0 92.0745 0.151096 92 0.0337268 92Z" fill="#3B3B3B"/>
<path fill-rule="evenodd" clip-rule="evenodd" d="M379.793 24H600C513.98 24.27 600.147 24 600 24V93C600.001 91.1884 600 89.6493 600 93H309.058C308.91 93 309.058 93 309.365 92.7595C309.672 92.5189 379.282 24.2384 379.282 24.2384C379.417 24.1068 379.646 24 379.793 24Z" fill="#383838"/>
<path fill-rule="evenodd" clip-rule="evenodd" d="M549.575 24H497.145C497.003 24 496.958 23.9179 497.043 23.8169L517.013 0.183105C517.098 0.0818898 517.283 0 517.425 0H569.855C569.997 0 570.042 0.0818898 569.957 0.183105L549.987 23.8169C549.901 23.9179 549.717 24 549.575 24Z" fill="#18A5B9"/>
<path d="M555.582 41H600V31.5V0.0886539L517.035 0C516.988 0 516.988 0.0398132 517.035 0.0886539L555.415 40.9113C555.461 40.9604 555.536 41 555.582 41Z" fill="#18B2C8"/>
</svg>
